<svg xmlns="http://www.w3.org/2000/svg" viewBox="-1 -1 30 30" fill="none">
	<path d="M27.375 27.375H18.0938V24.2814H24.2814V18.0938H27.375V27.375Z" fill="#2f9c88" stroke="#2f9c88" stroke-width="0.75"/>
	<path fill-rule="evenodd" clip-rule="evenodd" d="M11.7656 0.375C18.0565 0.375 23.1562 5.47476 23.1562 11.7656C23.1562 18.0565 18.0565 23.1562 11.7656 23.1562C5.47476 23.1562 0.375 18.0565 0.375 11.7656C0.375 5.47476 5.47476 0.375 11.7656 0.375ZM11.8711 3.75C7.38594 3.75 3.75 7.38594 3.75 11.8711C3.75 16.3562 7.38594 19.9922 11.8711 19.9922C16.3562 19.9922 19.9922 16.3562 19.9922 11.8711C19.9922 7.38594 16.3562 3.75 11.8711 3.75Z" fill="#2f9c88" stroke="#2f9c88" stroke-width="0.75"/>
</svg>
